<svg width="77" height="75" fill="none" xmlns="http://www.w3.org/2000/svg"><path d="M48.05 65.54H20.07a10 10 0 0 1-7.02-2.89 9.76 9.76 0 0 1-2.9-6.93V28.17c.01-2.6 1.06-5.08 2.91-6.92a10 10 0 0 1 7-2.87h8.38a1.54 1.54 0 0 1 1.1 2.64c-.28.3-.68.46-1.1.46h-8.38c-1.79 0-3.5.71-4.78 1.97a6.68 6.68 0 0 0-2 4.72v27.55c0 1.78.72 3.48 2 4.74a6.85 6.85 0 0 0 4.79 1.98h27.98a6.88 6.88 0 0 0 4.81-1.97 6.72 6.72 0 0 0 2-4.75V50.2c0-.4.16-.8.45-1.1a1.58 1.58 0 0 1 2.22 0c.3.3.46.7.46 1.1v5.52c0 2.6-1.05 5.1-2.91 6.94a10 10 0 0 1-7.03 2.88ZM56.3 29.28c-.4 0-.8-.15-1.1-.43-.28-.27-.46-.65-.47-1.05a6.49 6.49 0 0 0-1.07-3.23 6.86 6.86 0 0 0-5.14-3.04 1.58 1.58 0 0 1-1.41-1c-.08-.2-.1-.4-.1-.6 0-.4.14-.78.4-1.07.28-.28.65-.46 1.04-.48a9.87 9.87 0 0 1 9.41 9.3 1.53 1.53 0 0 1-.9 1.46c-.2.09-.4.14-.6.14h-.06Z" fill="#FF4343"/><path d="M41.77 43.5h-7.75a1.54 1.54 0 0 1-1.57-1.55v-7.8c0-.4.16-.8.44-1.08l15.69-15.5a1.58 1.58 0 0 1 2.2 0l2.72 2.7a1.54 1.54 0 0 1-1.1 2.62 1.58 1.58 0 0 1-1.12-.45l-1.6-1.55L35.5 34.8v5.6h5.68l14.2-14.06-1.6-1.58a1.54 1.54 0 0 1 1.12-2.63 1.59 1.59 0 0 1 1.11.46l2.7 2.67a1.55 1.55 0 0 1 .34 1.7c-.07.18-.2.35-.34.5L43.03 42.95a1.66 1.66 0 0 1-1.26.56Z" fill="#FF4343"/><path d="M57.7 27.89c-.41 0-.82-.15-1.12-.43l-2.7-2.7A1.54 1.54 0 0 1 55 22.13a1.58 1.58 0 0 1 1.12.46l1.6 1.58 5.64-5.6-5.64-5.59-5.68 5.58 1.6 1.58a1.54 1.54 0 0 1-1.11 2.63 1.58 1.58 0 0 1-1.12-.46l-2.7-2.66a1.46 1.46 0 0 1-.47-1.09 1.5 1.5 0 0 1 .47-1.11l7.88-7.75a1.57 1.57 0 0 1 1.72-.34c.19.08.36.2.5.34l7.88 7.75a1.57 1.57 0 0 1 0 2.2l-7.87 7.8c-.3.29-.7.44-1.1.44Z" fill="#FF4343"/></svg>