<svg width="77" height="76" fill="none" xmlns="http://www.w3.org/2000/svg"><path d="M51.62 47.75H38.43a1.57 1.57 0 0 1 0-3.15h13.2a1.57 1.57 0 1 1 0 3.15ZM60.5 46.78c-.19.04-.38.04-.57 0a1.54 1.54 0 0 1-.9-2.02l7.48-20.02a1.57 1.57 0 0 1 2.02-.91 1.64 1.64 0 0 1 .94 2.04L61.98 45.8a1.64 1.64 0 0 1-1.48.98ZM28.36 47.37a1.54 1.54 0 0 1-1.48-1.07l-9.89-30.03H7.55a1.57 1.57 0 0 1-1.58-1.57 1.6 1.6 0 0 1 1.58-1.58h10.58a1.6 1.6 0 0 1 1.48 1.07l10.35 31.1a1.54 1.54 0 0 1-.97 1.99c-.2.08-.42.11-.63.1Z" fill="#FF4343"/><path d="M33.2 61.54a9.44 9.44 0 1 1 0-18.89 9.44 9.44 0 0 1 0 18.89Zm0-15.74a6.3 6.3 0 1 0 0 12.6 6.3 6.3 0 0 0 0-12.6ZM56.85 61.54a9.44 9.44 0 1 1 0-18.89 9.44 9.44 0 0 1 0 18.89Zm0-15.74a6.3 6.3 0 1 0 0 12.6 6.3 6.3 0 0 0 0-12.6Z" fill="#FF4343"/></svg>