<svg width="77" height="76" fill="none" xmlns="http://www.w3.org/2000/svg"><path d="M23.2 66.04a5.57 5.57 0 0 1-5.13-7.36l3.97-12.22a2.4 2.4 0 0 0-.88-2.68l-10.4-7.55a5.54 5.54 0 0 1 3.15-10.01h12.85a2.4 2.4 0 0 0 2.27-1.48l3.96-12.25a5.42 5.42 0 0 1 5.26-3.87 5.45 5.45 0 0 1 5.26 3.8l3.96 12.32a2.42 2.42 0 0 0 2.27 1.64h12.88a5.54 5.54 0 0 1 3.14 10l-10.38 7.56a2.4 2.4 0 0 0-.89 2.68l4 12.24a5.54 5.54 0 0 1-2.01 6.3 5.41 5.41 0 0 1-6.52 0L39.57 57.6a2.42 2.42 0 0 0-2.8 0l-10.42 7.56c-.93.61-2.03.92-3.15.88Zm-9.32-36.58a2.3 2.3 0 0 0-2.26 1.64 2.36 2.36 0 0 0 .85 2.67l10.42 7.56a5.57 5.57 0 0 1 2.01 6.3l-3.97 12.12a2.33 2.33 0 0 0 .85 2.67 2.3 2.3 0 0 0 2.8 0l10.52-7.55a5.48 5.48 0 0 1 6.49 0l10.32 7.65a2.3 2.3 0 0 0 2.8 0 2.33 2.33 0 0 0 .85-2.68L51.6 47.63a5.57 5.57 0 0 1 2.01-6.3l10.4-7.56a2.4 2.4 0 0 0-1.4-4.31H49.75a5.54 5.54 0 0 1-5.2-3.8L40.53 13.4a2.3 2.3 0 0 0-2.27-1.63 2.3 2.3 0 0 0-2.27 1.63l-4.03 12.25a5.54 5.54 0 0 1-5.2 3.81H13.89Z" fill="#FF4343"/></svg>