<svg width="77" height="76" fill="none" xmlns="http://www.w3.org/2000/svg"><path d="M51.16 50.84a1.57 1.57 0 0 1-1.55-1.9 1.58 1.58 0 0 1 .7-1 22.29 22.29 0 1 0-24.12 0 1.57 1.57 0 1 1-1.7 2.64 25.44 25.44 0 1 1 27.52 0c-.25.17-.55.26-.85.26Z" fill="#FF4343"/><path d="M51.16 63.27H25.34a1.6 1.6 0 0 1-1.57-1.57V49.26a1.6 1.6 0 0 1 1.57-1.57 1.57 1.57 0 0 1 1.58 1.57v10.86h22.66V49.26a1.57 1.57 0 0 1 1.58-1.57 1.6 1.6 0 0 1 1.57 1.57V61.7a1.6 1.6 0 0 1-1.57 1.57Z" fill="#FF4343"/><path d="M30 70.95a1.57 1.57 0 0 1-1.57-1.57v-5.54A1.6 1.6 0 0 1 30 62.26a1.57 1.57 0 0 1 1.58 1.58v5.54A1.57 1.57 0 0 1 30 70.95ZM46.5 70.95a1.57 1.57 0 0 1-1.58-1.57v-5.54a1.57 1.57 0 0 1 1.58-1.58 1.6 1.6 0 0 1 1.57 1.58v5.54a1.57 1.57 0 0 1-1.57 1.57ZM38.25 63.27a1.57 1.57 0 0 1-1.57-1.57V36.5a1.57 1.57 0 1 1 3.14 0V61.7a1.57 1.57 0 0 1-1.57 1.57Z" fill="#FF4343"/></svg>