<svg width="76" height="76" fill="none" xmlns="http://www.w3.org/2000/svg"><path d="M57.88 54.25h-40.6a11.8 11.8 0 0 1-11.8-11.8v-22.1A11.84 11.84 0 0 1 17.28 8.4h40.6a11.84 11.84 0 0 1 11.8 11.8v22.26a11.8 11.8 0 0 1-11.8 11.8Zm-40.6-42.7a8.65 8.65 0 0 0-8.64 8.64v22.26a8.65 8.65 0 0 0 8.65 8.65h40.59a8.65 8.65 0 0 0 8.65-8.65v-22.1a8.65 8.65 0 0 0-8.65-8.8h-40.6Z" fill="#FF4343"/><path d="M68.1 42.26H7.07a1.61 1.61 0 0 1-1.58-1.58 1.58 1.58 0 0 1 1.58-1.58h61.05a1.58 1.58 0 0 1 0 3.16ZM37.54 66.47a1.58 1.58 0 0 1-1.58-1.58V52.67a1.58 1.58 0 0 1 3.16 0V64.9a1.58 1.58 0 0 1-1.58 1.58Z" fill="#FF4343"/><path d="M55.78 66.47H19.16a1.58 1.58 0 0 1 0-3.16h36.62a1.58 1.58 0 0 1 0 3.16Z" fill="#FF4343"/></svg>